<svg xmlns="http://www.w3.org/2000/svg" width="21.643" height="20.027" viewBox="0 0 21.643 20.027"><defs><style>.a{fill:#7b7b7b;}</style></defs><g transform="translate(0 0)"><g transform="translate(7.172 16.22)"><g transform="translate(0 0)"><path class="a" d="M171.559,402.828a1.9,1.9,0,1,0,1.9,1.9A1.906,1.906,0,0,0,171.559,402.828Zm0,2.744a.841.841,0,1,1,.841-.841A.842.842,0,0,1,171.559,405.572Z" transform="translate(-169.656 -402.828)"/></g></g><g transform="translate(13.848 16.22)"><g transform="translate(0 0)"><path class="a" d="M329.5,402.828a1.9,1.9,0,1,0,1.9,1.9A1.906,1.906,0,0,0,329.5,402.828Zm0,2.744a.841.841,0,1,1,.841-.841A.842.842,0,0,1,329.5,405.572Z" transform="translate(-327.601 -402.828)"/></g></g><g transform="translate(0 0)"><path class="a" d="M21.4,22.945a1.059,1.059,0,0,0-.824-.391H4.027l-.334-1.623a1.064,1.064,0,0,0-.618-.76L.743,19.158a.531.531,0,0,0-.423.975l2.332,1.012L5.223,33.627a1.067,1.067,0,0,0,1.041.848H19a.531.531,0,1,0,0-1.063H6.264l-.313-1.518H19.093a1.067,1.067,0,0,0,1.041-.848l1.486-7.215A1.059,1.059,0,0,0,21.4,22.945Zm-2.31,7.886H5.732L4.246,23.617H20.58Z" transform="translate(0 -19.114)"/></g></g></svg>